<svg width="66" height="66" viewBox="0 0 66 66" fill="none" xmlns="http://www.w3.org/2000/svg"><g clip-path="url(#a)"><path d="M32.688 65.14C13.771 63.837.639 51.834.014 32.136-.525 14.99 14.953-.487 32.097.069 51.883.712 64.32 13.862 65.102 32.761 65.64 50.08 50.076 65.157 32.688 65.14Zm-.191-36.114a597.103 597.103 0 0 1-8.685-8.859c-1.32-1.372-2.867-2.57-4.152-.382a4.116 4.116 0 0 0 .556 3.804c2.623 2.832 5.593 5.35 8.859 8.39-3.231 3.127-5.871 5.767-8.685 8.303-2.814 2.537-1.894 4.065 2.154 6.289l9.189-11.795c3.474 3.77 6.045 6.757 8.928 9.31.886.782 2.78.418 4.204.574-.209-1.338 0-3.144-.712-3.891-2.832-2.797-6.01-5.211-9.884-8.494 4.065-3.614 6.948-5.976 9.554-8.686.781-.799.556-2.536.799-3.856-1.425.208-3.3-.104-4.187.695-2.727 2.588-5.037 5.506-7.938 8.598Z" fill="#fff"/><path d="M32.493 29.028c2.883-3.162 5.21-6.08 8.008-8.581.886-.8 2.762-.487 4.186-.695-.243 1.32 0 3.057-.8 3.856-2.57 2.693-5.488 5.055-9.553 8.686 3.874 3.265 7.052 5.697 9.884 8.494.764.747.504 2.553.712 3.89-1.424-.156-3.318.21-4.204-.572-2.883-2.554-5.385-5.542-8.928-9.311l-9.19 11.795c-4.047-2.224-4.811-3.822-2.153-6.289 2.658-2.466 5.385-5.21 8.685-8.303-3.266-3.04-6.236-5.559-8.859-8.39a4.117 4.117 0 0 1-.556-3.804c1.286-2.189 2.832-.99 4.152.382 2.536 2.745 5.142 5.368 8.616 8.842Z" fill="#FC4055"/></g><defs><clipPath id="a"><path fill="#fff" d="M0 0h65.019v65.14H0z"/></clipPath></defs></svg>
